# xmcd
#
# Track frame offsets:
#	150
#	27615
#	53382
#	80857
#	100295
#	121446
#	145333
#	165723
#	188964
#	207330
#	233353
#	253802
#	277509
#	300906
#
# Disc length: 4323 seconds
#
# Revision: 1
# Processed by: cddbd v1.5.2PL0 Copyright (c) Steve Scherf et al.
# Submitted via: EasyCDDAExtractor 16.0.9.1
#
DISCID=b910e10e
DTITLE=Lệ Quyên - VTCD: Khúc Tình Xưa 5 - Hẹn Hò
DYEAR=2019
DGENRE=Country
TTITLE0=Lệ Quyên - Ai Nhớ Chăng Ai? (Hoàng Thi Thơ)
TTITLE1=Lệ Quyên - Hẹn Hò (Phạm Duy)
TTITLE2=Lệ Quyên - Sao Chưa Thấy Hồi Âm? (Châu Kỳ)
TTITLE3=Lệ Quyên - Xót Xa (Lam Phương)
TTITLE4=Lệ Quyên - Mưa Qua Phố Vắng (Hà Phương)
TTITLE5=Lệ Quyên - Đường Xưa Lỗi Cũ (Hoàng Thi Thơ)
TTITLE6=Lệ Quyên - Nhật Ký Đời Tôi (Thanh Sơn)
TTITLE7=Lệ Quyên and Mạnh Đồng - Hai Vì Sao Lạc (Anh Việt Thu)
TTITLE8=Lệ Quyên and Mai Hường - Tấm Ảnh Không Hồn (Hoài An)
TTITLE9=Lệ Quyên and Ý Linh - Không Bao Giờ Quên Anh (Hoàng Trang)
TTITLE10=Lệ Quyên and Triều Quân - Liên Khúc: Con Đường Xưa Em Đi (Châu Kỳ - Hoà
TTITLE10=ng Đình Phương) and Đừng Nói Xa Nhau (Châu Kỳ)
TTITLE11=Lệ Quyên and Sa Huỳnh Lê Mai - Sầu Lẻ Bóng 2 (Anh Bằng)
TTITLE12=Lệ Quyên and Đức Nhâm - Chiều Mưa Biên Giới (Nguyễn Văn Đông)
TTITLE13=Lệ Quyên and Đỗ Yến - Hoa Trinh Nữ (Trần Thiện Thanh)
EXTD=
EXTT0=
EXTT1=
EXTT2=
EXTT3=
EXTT4=
EXTT5=
EXTT6=
EXTT7=
EXTT8=
EXTT9=
EXTT10=
EXTT11=
EXTT12=
EXTT13=
PLAYORDER=
